# xmcd
#
# Track frame offsets:
#	150
#	49155
#	86042
#	119918
#	150401
#	161388
#	186224
#	208413
#	237601
#	257314
#	273673
#
# Disc length: 4076 seconds
#
# Revision: 0
# Processed by: cddbd v1.5.1PL0 Copyright (c) Steve Scherf et al.
# Submitted via: dBpowerAMP V4.0
#
DISCID=9f0fea0b
DTITLE=Widespread Panic - Coumbia 10-21-03
DYEAR=1900
DGENRE=
TTITLE0=Mercy/Jam
TTITLE1=Thin Air
TTITLE2=One Kind Favor
TTITLE3=Chilly Water
TTITLE4=Drumz
TTITLE5=Ain't life Grand
TTITLE6=Chilly Water (reprise)
TTITLE7=Banter
TTITLE8=Old Joe
TTITLE9=Can't Get High
TTITLE10=Climb to Safety
EXTD=Columbia South Carolina Township Auditorium 10-21-03
EXTT0=
EXTT1=
EXTT2=
EXTT3=
EXTT4=
EXTT5=
EXTT6=
EXTT7=
EXTT8=
EXTT9=
EXTT10=
PLAYORDER=
